<svg width="800" height="500" xmlns="http://www.w3.org/2000/svg">
  <defs>
    <linearGradient id="skyBg" x1="0%" y1="0%" x2="0%" y2="100%">
      <stop offset="0%" style="stop-color:#60a5fa;stop-opacity:1" />
      <stop offset="100%" style="stop-color:#3b82f6;stop-opacity:1" />
    </linearGradient>
  </defs>
  <rect width="100%" height="100%" fill="url(#skyBg)"/>
  
  <!-- Building Base -->
  <rect x="150" y="200" width="500" height="300" fill="#f3f4f6"/>
  <rect x="150" y="180" width="500" height="40" fill="#e5e7eb"/>
  
  <!-- Columns -->
  <rect x="200" y="220" width="30" height="280" fill="#d1d5db"/>
  <rect x="270" y="220" width="30" height="280" fill="#d1d5db"/>
  <rect x="340" y="220" width="30" height="280" fill="#d1d5db"/>
  <rect x="410" y="220" width="30" height="280" fill="#d1d5db"/>
  <rect x="480" y="220" width="30" height="280" fill="#d1d5db"/>
  <rect x="550" y="220" width="30" height="280" fill="#d1d5db"/>
  
  <!-- Entrance -->
  <rect x="350" y="350" width="100" height="150" fill="#374151"/>
  <rect x="375" y="350" width="50" height="150" fill="#1f2937"/>
  
  <!-- Flag -->
  <rect x="380" y="120" width="40" height="25" fill="#dc2626"/>
  <rect x="380" y="145" width="40" height="25" fill="#ffffff"/>
  <rect x="380" y="170" width="40" height="25" fill="#2563eb"/>
  <rect x="375" y="120" width="5" height="100" fill="#6b7280"/>
  
  <!-- Text -->
  <text x="400" y="80" font-family="Arial, sans-serif" font-size="28" fill="#ffffff" text-anchor="middle" font-weight="bold">국회의사당</text>
  <text x="400" y="110" font-family="Arial, sans-serif" font-size="16" fill="#e5e7eb" text-anchor="middle">National Assembly</text>
</svg>