<svg width="400" height="240" xmlns="http://www.w3.org/2000/svg">
  <defs>
    <linearGradient id="newsBg2" x1="0%" y1="0%" x2="100%" y2="100%">
      <stop offset="0%" style="stop-color:#059669;stop-opacity:1" />
      <stop offset="100%" style="stop-color:#047857;stop-opacity:1" />
    </linearGradient>
  </defs>
  <rect width="100%" height="100%" fill="url(#newsBg2)"/>
  
  <!-- People silhouettes representing community -->
  <g fill="#ffffff" opacity="0.9">
    <!-- Person 1 -->
    <circle cx="140" cy="90" r="15"/>
    <rect x="130" y="110" width="20" height="40" rx="3"/>
    
    <!-- Person 2 -->
    <circle cx="180" cy="85" r="18"/>
    <rect x="167" y="108" width="26" height="45" rx="3"/>
    
    <!-- Person 3 -->
    <circle cx="220" cy="90" r="15"/>
    <rect x="210" y="110" width="20" height="40" rx="3"/>
    
    <!-- Person 4 -->
    <circle cx="260" cy="85" r="17"/>
    <rect x="248" y="107" width="24" height="43" rx="3"/>
  </g>
  
  <!-- Hearts/support symbols -->
  <g fill="#ffffff" opacity="0.7">
    <path d="M160 170 Q160 165 165 165 Q170 165 170 170 Q170 175 165 180 Q160 175 160 170" />
    <path d="M230 170 Q230 165 235 165 Q240 165 240 170 Q240 175 235 180 Q230 175 230 170" />
  </g>
  
  <!-- Text -->
  <text x="200" y="210" font-family="Arial, sans-serif" font-size="16" fill="#ffffff" text-anchor="middle" font-weight="bold">지역 활동</text>
</svg>